<?xml version="1.0" encoding="UTF-8"?>
<svg width="168px" height="77px" viewBox="0 0 168 77" version="1.1" xmlns="http://www.w3.org/2000/svg" xmlns:xlink="http://www.w3.org/1999/xlink">
    <title>create_account</title>
    <g id="Page-1" stroke="none" stroke-width="1" fill="none" fill-rule="evenodd">
        <g id="create_account" transform="translate(-30.000000, -30.000000)">

            <g id="Group-7" transform="translate(30.000000, 30.000000)">
                <path d="M35.6559678,40.0409392 L8.98090983,40.0409392 C9.21018072,43.1506764 10.2038138,45.6255637 11.9617777,47.4655369 C13.7197415,49.279609 15.974522,50.1866291 18.7261189,50.1866291 C20.8662639,50.1866291 22.636944,49.6683182 24.0382223,48.6317284 C25.4140365,47.5951066 26.9809098,45.677398 28.7388737,42.8785384 L36,46.9990603 C34.8791411,48.9427021 33.6943859,50.6077386 32.4457346,51.9942019 C31.1974609,53.3806651 29.85989,54.5209234 28.4331162,55.4149769 C27.0063739,56.3090624 25.4649646,56.9634102 23.8089199,57.3780525 C22.1528752,57.7926949 20.3566996,58 18.4203929,58 C12.8662394,58 8.40763817,56.1859599 5.0445892,52.5578477 C1.68154022,48.9038344 0,44.0576965 0,38.0194339 C0,32.0330376 1.63058064,27.1870597 4.89171046,23.4811801 C8.1783358,19.8271667 12.5350494,18 17.9617882,18 C23.4394866,18 27.7707046,19.7753004 30.9554108,23.3255811 C34.11459,26.8502488 35.6943684,31.7349664 35.6943684,37.9806942 L35.6559678,40.0409392 Z M26.8280311,32.8881913 C25.6305911,28.2237455 22.7388632,25.8913625 18.1528787,25.8913625 C17.108286,25.8913625 16.1274007,26.0533647 15.2101912,26.3770488 C14.2930132,26.7010532 13.458617,27.1675298 12.7070025,27.7764786 C11.9554195,28.3857477 11.3121139,29.1176389 10.7770855,29.9727926 C10.2420571,30.8279463 9.83441197,31.7999593 9.55415002,32.8881913 L26.8280311,32.8881913 Z" id="Fill-1" fill="#0057FF"></path>
                <path d="M49.6365504,77 L41,77 L41,19.0407452 L49.6365504,19.0407452 L49.6365504,23.1256462 C53.0397667,19.7085487 56.9039109,18 61.2283508,18 C66.3719021,18 70.6068752,19.9012088 73.9335862,23.7036264 C77.3111954,27.4803348 79,32.2460527 79,38.00078 C79,43.6272789 77.324157,48.3157741 73.9718388,52.0666781 C70.6451277,55.7919048 66.4487234,57.6545181 61.3819935,57.6545181 C57.0063394,57.6545181 53.0909809,55.8946779 49.6365504,52.374966 L49.6365504,77 Z M70.1718705,38.0391851 C70.1718705,34.4424408 69.1994326,31.5138175 67.254557,29.2529978 C65.2843903,26.9664689 62.8020815,25.8232044 59.8082628,25.8232044 C56.6351944,25.8232044 54.0634188,26.9277464 52.092936,29.1371478 C50.1227694,31.3468666 49.1373699,34.2497808 49.1373699,37.846525 C49.1373699,41.3661418 50.1227694,44.2693733 52.092936,46.555934 C54.0378117,48.7910446 56.5966257,49.9086316 59.7696941,49.9086316 C62.7638289,49.9086316 65.2331761,48.7782217 67.1780518,46.5173702 C69.1738255,44.2566774 70.1718705,41.4305734 70.1718705,38.0391851 Z" id="Fill-2" fill="#0057FF"></path>
                <polygon id="Fill-3" fill="#0057FF" points="85 56 94 56 94 18 85 18"></polygon>
                <path d="M84,5.44356992 C84,3.96711174 84.5380183,2.69070977 85.614364,1.61436402 C86.6904006,0.538018271 87.97948,0 89.481293,0 C91.0078426,0 92.3092902,0.538018271 93.385636,1.61436402 C94.4616725,2.66566409 95,3.95443429 95,5.48129304 C95,7.00784259 94.4616725,8.30929023 93.385636,9.38563598 C92.3343359,10.4619817 91.0455657,11 89.518707,11 C87.9921574,11 86.6904006,10.4619817 85.614364,9.38563598 C84.5380183,8.30929023 84,6.99547435 84,5.44356992 Z" id="Fill-4" fill="#00B3FF"></path>
                <path d="M99,37.7083307 C99,32.240251 100.937693,27.5885894 104.81308,23.7530255 C108.688783,19.9177819 113.411415,18 118.980658,18 C124.575902,18 129.3239,19.9305885 133.225287,23.7920855 C137.07499,27.6532625 139,32.3958507 139,38.01953 C139,43.6947557 137.062307,48.4502785 133.186603,52.2857143 C129.285533,56.0952488 124.498851,58 118.826873,58 C113.205945,58 108.496314,56.0563809 104.697662,52.1691106 C100.899326,48.3336428 99,43.5135429 99,37.7083307 Z M107.854538,37.8639303 C107.854538,41.6476276 108.855569,44.6408401 110.85763,46.8435359 C112.910741,49.072229 115.618629,50.1865915 118.980658,50.1865915 C122.368688,50.1865915 125.076258,49.0851956 127.104003,46.8824038 C129.131431,44.6795799 130.145462,41.738234 130.145462,38.0582698 C130.145462,34.3783057 129.131431,31.4369597 127.104003,29.2342319 C125.050575,27.0055709 122.343004,25.8910802 118.980658,25.8910802 C115.669996,25.8910802 112.987792,27.0055709 110.934364,29.2342319 C108.881252,31.462893 107.854538,34.3395659 107.854538,37.8639303 Z" id="Fill-5" fill="#0057FF"></path>
                <path d="M165.552261,25.5026854 L158.326472,29.3510372 C157.187073,27.0186543 155.775384,25.8523027 154.092044,25.8523027 C153.289249,25.8523027 152.602922,26.1180375 152.033063,26.6491869 C151.463204,27.1806564 151.178434,27.8606813 151.178434,28.6902221 C151.178434,30.141198 152.861775,31.5796876 156.228776,33.0050506 C160.864761,35.0003026 163.985388,36.8402758 165.591297,38.5249703 C167.196886,40.2093446 168,42.4770548 168,45.3274605 C168,48.9815699 166.652944,52.0395369 163.959471,54.5014896 C161.34375,56.8338405 158.184087,58 154.480482,58 C148.135239,58 143.641638,54.9031653 141,48.7094638 L148.459044,45.249661 C149.494774,47.0638612 150.28477,48.2170861 150.828712,48.7094638 C151.890678,49.6942513 153.159663,50.1866291 154.635985,50.1866291 C157.588311,50.1866291 159.064633,48.8390336 159.064633,46.1438746 C159.064633,44.5888459 157.925235,43.1378699 155.645798,41.7903064 C154.765252,41.3494428 153.884706,40.9220261 153.00416,40.5074158 C152.123613,40.0928055 151.230269,39.6650685 150.323805,39.2245251 C147.785516,37.9806942 145.998507,36.7368633 144.962457,35.4927123 C143.641638,33.9120706 142.981229,31.8777588 142.981229,29.3897769 C142.981229,26.0985076 144.107828,23.3774474 146.361028,21.2265965 C148.666062,19.0757456 151.463204,18 154.752453,18 C159.595456,18 163.195712,20.5007884 165.552261,25.5026854 Z" id="Fill-6" fill="#0057FF"></path>
            </g>
        </g>
    </g>
</svg>