<?xml version="1.0" encoding="UTF-8"?>
<svg width="281px" height="280px" viewBox="0 0 281 280" version="1.1" xmlns="http://www.w3.org/2000/svg" xmlns:xlink="http://www.w3.org/1999/xlink">
    <title>epios_mail</title>
    <defs>
        <polygon id="path-1" points="0 0 200 0 100 59"></polygon>
        <linearGradient x1="50%" y1="8.26646959%" x2="50%" y2="100%" id="linearGradient-3">
            <stop stop-color="#FFFFFF" offset="0%"></stop>
            <stop stop-color="#F7F9FE" offset="30.6461149%"></stop>
            <stop stop-color="#F5F8FE" offset="33.5029561%"></stop>
            <stop stop-color="#FFFFFF" offset="100%"></stop>
        </linearGradient>
        <polygon id="path-4" points="17 12 183 12 100 59"></polygon>
        <filter x="-22.3%" y="-74.5%" width="144.6%" height="257.4%" filterUnits="objectBoundingBox" id="filter-5">
            <feOffset dx="0" dy="2" in="SourceAlpha" result="shadowOffsetOuter1"></feOffset>
            <feGaussianBlur stdDeviation="12" in="shadowOffsetOuter1" result="shadowBlurOuter1"></feGaussianBlur>
            <feColorMatrix values="0 0 0 0 0   0 0 0 0 0.341176471   0 0 0 0 1  0 0 0 0.132867133 0" type="matrix" in="shadowBlurOuter1" result="shadowMatrixOuter1"></feColorMatrix>
            <feOffset dx="0" dy="6" in="SourceAlpha" result="shadowOffsetOuter2"></feOffset>
            <feGaussianBlur stdDeviation="2" in="shadowOffsetOuter2" result="shadowBlurOuter2"></feGaussianBlur>
            <feColorMatrix values="0 0 0 0 0   0 0 0 0 0   0 0 0 0 0  0 0 0 0.0684549825 0" type="matrix" in="shadowBlurOuter2" result="shadowMatrixOuter2"></feColorMatrix>
            <feMerge>
                <feMergeNode in="shadowMatrixOuter1"></feMergeNode>
                <feMergeNode in="shadowMatrixOuter2"></feMergeNode>
            </feMerge>
        </filter>
        <polygon id="path-6" points="0 0 200 0 100 59"></polygon>
    </defs>
    <g id="Page-1" stroke="none" stroke-width="1" fill="none" fill-rule="evenodd">
        <g id="create_performtest2-copy" transform="translate(-17.000000, -303.000000)">
            <g id="Group-9" transform="translate(60.000000, 340.000000)">
                <path d="M100,1.20370262 L1,67.5337026 L1,184 L199,184 L199,67.5337026 L100,1.20370262 Z" id="Combined-Shape" stroke="#DDE9FF" stroke-width="2" fill="#FFFFFF"></path>
                <g id="Group-5" transform="translate(0.000000, 67.000000)">
                    <mask id="mask-2" fill="white">
                        <use xlink:href="#path-1"></use>
                    </mask>
                    <use id="Rectangle-Copy" fill-opacity="0.557801573" fill="#FFFFFF" xlink:href="#path-1"></use>
                    <g id="Rectangle-Copy-3" mask="url(#mask-2)">
                        <use fill="black" fill-opacity="1" filter="url(#filter-5)" xlink:href="#path-4"></use>
                        <use fill="url(#linearGradient-3)" fill-rule="evenodd" xlink:href="#path-4"></use>
                    </g>
                    <mask id="mask-7" fill="white">
                        <use xlink:href="#path-6"></use>
                    </mask>
                    <path stroke="#DDE9FF" stroke-width="2" d="M196.337157,1 L3.66284252,1 L100,57.8389229 L196.337157,1 Z"></path>
                    <g id="Group-8" mask="url(#mask-7)">
                        <g transform="translate(-17.000000, 20.000000)">
                            <path d="M62.7909252,4 C64.0091347,4 65.0121546,4.45113429 65.8000599,5.35340287 C66.60002,6.24957098 67,7.38041929 67,8.74594781 C67,10.0810492 66.6030898,11.1935735 65.8091197,12.0836185 C65.0212145,12.9675706 64.0273292,13.4095467 62.8273142,13.4095467 C61.7909751,13.4095467 60.8636534,12.9919575 60.0454988,12.1567716 L60.0454988,18 L58,18 L58,4.24695648 L60.0454988,4.24695648 L60.0454988,5.21625504 C60.8515237,4.40541835 61.7667158,4 62.7909252,4 Z M52.9915085,4 C54.2087748,4 55.1712677,4.3994426 55.8789802,5.19825576 C56.58102,5.99130599 56.9320819,7.09036743 56.9320819,8.4956562 L56.9235484,8.95921131 L50.9957577,8.95921131 C51.0467068,9.6589022 51.2675142,10.2157518 51.6581728,10.6297458 C52.0488315,11.037912 52.5498938,11.2419915 53.1613598,11.2419915 C53.6369475,11.2419915 54.030432,11.1253716 54.3418272,10.8921389 C54.6475637,10.658899 54.9957577,10.2274145 55.3864164,9.59767114 L57,10.5247886 C56.7509202,10.962108 56.4876413,11.3367412 56.2101632,11.6486954 C55.9327691,11.9606496 55.6355311,12.2172078 55.3184703,12.4183698 C55.0014164,12.619539 54.658881,12.7667673 54.2908711,12.8600618 C53.9228612,12.9533563 53.523711,13 53.0934206,13 C51.8591643,13 50.868364,12.591841 50.1210198,11.7755157 C49.3736756,10.9533627 49,9.8629817 49,8.50437262 C49,7.15743345 49.3623513,6.06708843 50.0870468,5.23326551 C50.817408,4.41111252 51.7855665,4 52.9915085,4 Z M71,4 L71,13 L69,13 L69,4 L71,4 Z M76.495648,4 C77.7545779,4 78.8228775,4.4343824 79.7006897,5.30321925 C80.5668728,6.17198406 81,7.2390664 81,8.50439425 C81,9.78132004 80.564019,10.8513127 79.6919857,11.7142857 C78.8142449,12.571431 77.7372414,13 76.4610464,13 C75.1963377,13 74.1366706,12.5626857 73.2819738,11.6880499 C72.4273484,10.8250696 72,9.74054716 72,8.4343744 C72,7.20405648 72.435981,6.15743261 73.3079429,5.29443075 C74.1799762,4.43150093 75.2425684,4 76.495648,4 Z M85.0561007,4 C86.1323237,4 86.9323805,4.56267739 87.456058,5.68810421 L85.8503271,6.55398338 C85.5971274,6.02919721 85.2834187,5.7667681 84.909343,5.7667681 C84.7309443,5.7667681 84.5784272,5.82655843 84.4517918,5.94606705 C84.3251564,6.0656477 84.2618743,6.2186533 84.2618743,6.40529997 C84.2618743,6.73176955 84.6359499,7.05542971 85.3841724,7.37613638 C86.4143914,7.82506807 87.1078641,8.23906205 87.4647327,8.61811831 C87.8215301,8.99710253 88,9.50733732 88,10.1486786 C88,10.9708532 87.7006542,11.6588958 87.1021047,12.2128351 C86.5208333,12.7376141 85.818686,13 84.9956627,13 C83.5856086,13 82.5870307,12.3032122 82,10.9096294 L83.6575654,10.1311737 C83.8877275,10.5393688 84.0632821,10.7988444 84.1841581,10.9096294 C84.4201507,11.1312065 84.7021473,11.2419915 85.030219,11.2419915 C85.6862912,11.2419915 86.0143629,10.9387826 86.0143629,10.3323718 C86.0143629,9.98249032 85.7611633,9.65602073 85.2546217,9.35281895 C85.0589448,9.25362464 84.8632679,9.15745586 84.667591,9.06416855 C84.4719141,8.97088123 84.2733931,8.87464042 84.0719568,8.77551814 C83.5078925,8.4956562 83.1107793,8.21579425 82.8805461,7.93586027 C82.5870307,7.58021589 82.440273,7.12249573 82.440273,6.5626998 C82.440273,5.8221642 82.6906286,5.20992567 83.1913396,4.72598422 C83.7035694,4.24204276 84.3251564,4 85.0561007,4 Z M62.4545886,5.85635359 C61.7030724,5.85635359 61.0939676,6.1184483 60.6272743,6.64271305 C60.1606559,7.1670531 59.9272718,7.85588019 59.9272718,8.70934492 C59.9272718,9.54450822 60.1606559,10.2334106 60.6272743,10.7759843 C61.0879028,11.3063496 61.6939377,11.5715397 62.4454539,11.5715397 C63.1545911,11.5715397 63.7394364,11.3033068 64.2000649,10.7668336 C64.6727481,10.230398 64.9091272,9.55979708 64.9091272,8.75506087 C64.9091272,7.90159613 64.678813,7.20666857 64.2181845,6.67020287 C63.7515661,6.12763668 63.1636509,5.85635359 62.4545886,5.85635359 Z M76.495648,5.77549305 C75.7507491,5.77549305 75.1472533,6.02625344 74.6852319,6.52770218 C74.2232818,7.02915093 73.9922711,7.67640232 73.9922711,8.46938432 C73.9922711,9.32071621 74.217503,9.99418902 74.6679667,10.4897956 C75.1299168,10.9912515 75.7391914,11.2419831 76.495648,11.2419831 C77.2579548,11.2419831 77.8671581,10.994169 78.3234007,10.4985409 C78.7795719,10.0029055 79.0077289,9.34110264 79.0077289,8.51311071 C79.0077289,7.68511878 78.7795719,7.02331594 78.3234007,6.52770218 C77.8613793,6.02625344 77.252176,5.77549305 76.495648,5.77549305 Z M53.0339731,5.77555656 C52.8018413,5.77555656 52.5838668,5.81200705 52.3800425,5.88483599 C52.1762252,5.95773696 51.9908038,6.0626942 51.8237783,6.19970769 C51.6567599,6.33679322 51.5138031,6.50146874 51.3949079,6.69387834 C51.2760127,6.88628793 51.1854249,7.10499085 51.1231444,7.34984304 L54.9617847,7.34984304 C54.6956869,6.30034273 54.0530807,5.77555656 53.0339731,5.77555656 Z M69.4948981,0 C69.9112298,0 70.2661701,0.146732256 70.5597189,0.440281096 C70.8531834,0.726999297 71,1.07848208 71,1.4948981 C71,1.9112298 70.8531834,2.26617006 70.5597189,2.5597189 C70.2730007,2.85326774 69.9215179,3 69.5051019,3 C69.0887702,3 68.7337456,2.85326774 68.4402811,2.5597189 C68.1467323,2.26617006 68,1.90785664 68,1.48460998 C68,1.08193956 68.1467323,0.733829937 68.4402811,0.440281096 C68.7337456,0.146732256 69.0853127,0 69.4948981,0 Z" id="Combined-Shape" fill="#0057FF" fill-rule="evenodd" opacity="0.254138765"></path>
                            <text id="1234567890-copy" fill="none" opacity="0.56921968" font-family="Noteworthy-Light, Noteworthy" font-size="14" font-weight="300" line-spacing="34">
                                <tspan x="73.8725" y="48" fill="#646464">1234567890</tspan>
                            </text>
                            <text id="Your-unique-identifi-Copy" fill="none" opacity="0.56921968" font-family="Helvetica-Bold, Helvetica" font-size="6" font-weight="bold" line-spacing="24">
                                <tspan x="78.8310547" y="28" fill="#0057FF">YOUR UNIQUE IDENTIFIER</tspan>
                            </text>
                        </g>
                    </g>
                </g>
                <polyline id="Path" stroke="#DDE9FF" stroke-width="2" fill="#FFFFFF" stroke-linecap="round" stroke-linejoin="round" points="200 67 200 185 100 126"></polyline>
            </g>
        </g>
    </g>
</svg>