<?xml version="1.0" encoding="UTF-8"?>
<svg width="24px" height="24px" viewBox="0 0 24 24" version="1.1" xmlns="http://www.w3.org/2000/svg" xmlns:xlink="http://www.w3.org/1999/xlink">
    <title>epios_icon_map</title>
    <g id="epios_icon_map" stroke="none" stroke-width="1" fill="none" fill-rule="evenodd">
        <g id="iconfinder_map_2561464" transform="translate(1.000000, 2.000000)" fill="#000000" fill-rule="nonzero">
            <path d="M21.5038611,-0.868243142 L14.968,2.865 L7.4472136,-0.894427191 C7.14815901,-1.04395448 6.79416092,-1.03412878 6.50386106,-0.868243142 L-0.496138938,3.13175686 C-0.807713936,3.30979971 -1,3.64114315 -1,4 L-1,20 L-0.993902922,20.112953 C-0.917458846,20.8138036 -0.13718499,21.2301425 0.496138938,20.8682431 L7.031,17.134 L14.5527864,20.8944272 C14.851841,21.0439545 15.2058391,21.0341288 15.4961389,20.8682431 L22.4961389,16.8682431 C22.8077139,16.6902003 23,16.3588568 23,16 L23,0 C23,-0.767822669 22.1705178,-1.24918987 21.5038611,-0.868243142 Z M7.031,1.134 L14.5527864,4.89442719 L14.6672756,4.94303669 C14.9393452,5.03905962 15.2421266,5.01339307 15.4961389,4.86824314 L21,1.723 L21,15.418 L14.968,18.865 L7.4472136,15.1055728 L7.33272437,15.0569633 C7.06065478,14.9609404 6.75787344,14.9866069 6.50386106,15.1317569 L1,18.276 L1,4.58 L7.031,1.134 Z" id="Path"></path>
            <path d="M7,-1 C7.51283584,-1 7.93550716,-0.61395981 7.99327227,-0.116621125 L8,0 L8,16 C8,16.5522847 7.55228475,17 7,17 C6.48716416,17 6.06449284,16.6139598 6.00672773,16.1166211 L6,16 L6,0 C6,-0.55228475 6.44771525,-1 7,-1 Z" id="Path"></path>
            <path d="M15,3 C15.5128358,3 15.9355072,3.38604019 15.9932723,3.88337887 L16,4 L16,20 C16,20.5522847 15.5522847,21 15,21 C14.4871642,21 14.0644928,20.6139598 14.0067277,20.1166211 L14,20 L14,4 C14,3.44771525 14.4477153,3 15,3 Z" id="Path"></path>
        </g>
    </g>
</svg>