<?xml version="1.0" encoding="UTF-8"?>
<svg width="281px" height="280px" viewBox="0 0 281 280" version="1.1" xmlns="http://www.w3.org/2000/svg" xmlns:xlink="http://www.w3.org/1999/xlink">
    <title>epios_scanqr</title>
    <defs>
        <linearGradient x1="91.6442871%" y1="95.1903873%" x2="44.6510417%" y2="46.982857%" id="linearGradient-1">
            <stop stop-color="#EDF2FC" offset="0%"></stop>
            <stop stop-color="#86AFFF" offset="100%"></stop>
        </linearGradient>
        <rect id="path-2" x="118" y="378" width="84" height="80" rx="4"></rect>
        <filter x="-44.0%" y="-43.8%" width="188.1%" height="192.5%" filterUnits="objectBoundingBox" id="filter-3">
            <feOffset dx="0" dy="2" in="SourceAlpha" result="shadowOffsetOuter1"></feOffset>
            <feGaussianBlur stdDeviation="12" in="shadowOffsetOuter1" result="shadowBlurOuter1"></feGaussianBlur>
            <feColorMatrix values="0 0 0 0 0   0 0 0 0 0.341176471   0 0 0 0 1  0 0 0 0.132867133 0" type="matrix" in="shadowBlurOuter1" result="shadowMatrixOuter1"></feColorMatrix>
            <feOffset dx="0" dy="6" in="SourceAlpha" result="shadowOffsetOuter2"></feOffset>
            <feGaussianBlur stdDeviation="2" in="shadowOffsetOuter2" result="shadowBlurOuter2"></feGaussianBlur>
            <feColorMatrix values="0 0 0 0 0   0 0 0 0 0   0 0 0 0 0  0 0 0 0.0684549825 0" type="matrix" in="shadowBlurOuter2" result="shadowMatrixOuter2"></feColorMatrix>
            <feMerge>
                <feMergeNode in="shadowMatrixOuter1"></feMergeNode>
                <feMergeNode in="shadowMatrixOuter2"></feMergeNode>
            </feMerge>
        </filter>
    </defs>
    <g id="Page-1" stroke="none" stroke-width="1" fill="none" fill-rule="evenodd">
        <g id="create_performtest" transform="translate(-17.000000, -303.000000)">
            <rect id="Rectangle" fill="url(#linearGradient-1)" x="64" y="368" width="192" height="100" rx="11"></rect>
            <g id="Rectangle-Copy">
                <use fill="black" fill-opacity="1" filter="url(#filter-3)" xlink:href="#path-2"></use>
                <use fill="#FFFFFF" fill-rule="evenodd" xlink:href="#path-2"></use>
            </g>
            <path d="M198.7,320 C205.88432,320 212.396072,322.867395 217.143047,327.515878 C221.894631,332.168873 224.878034,338.6065 224.996343,345.73821 L224.996343,345.73821 L225,532.820556 C225,539.970916 222.120135,546.451509 217.452622,551.175914 C212.777418,555.908104 206.308837,558.878569 199.143288,558.996359 L199.143288,558.996359 L123.3,559 C116.11568,559 109.603928,556.132605 104.856953,551.484122 C100.105369,546.831127 97.1219662,540.3935 97.0036573,533.26179 L97.0036573,533.26179 L97,346.179444 C97,339.029084 99.8798651,332.548491 104.547378,327.824086 C109.222582,323.091896 115.691163,320.121431 122.856712,320.003641 L122.856712,320.003641 Z M198.7,326.925926 L123.3,326.925926 C118.003838,326.925926 113.205281,329.046061 109.712394,332.523524 C106.241205,335.979384 104.058165,340.777281 103.965517,346.17075 L103.965517,532.820556 C103.965517,538.095557 106.095281,542.875336 109.589781,546.354405 C113.059418,549.808719 117.876242,551.981845 123.291381,552.074074 L198.7,552.074074 C203.996162,552.074074 208.794719,549.953939 212.287606,546.476476 C215.758795,543.020616 217.941835,538.222719 218.034483,532.82925 L218.034483,346.179444 C218.034483,340.862228 215.870035,336.048189 212.369977,332.563588 C208.871525,329.080585 204.038562,326.925926 198.7,326.925926 Z M163.666667,341 C164.596839,341 165.441924,341.342753 166.052516,341.906376 C166.632971,342.442181 167,343.180109 167,344 C167,344.75515 166.68859,345.441322 166.185611,345.963369 C165.657147,346.511866 164.919303,346.881414 164.090472,346.976015 L164.090472,346.976015 L159.333333,347 C158.403161,347 157.558076,346.657247 156.947484,346.093624 C156.367029,345.557819 156,344.819891 156,344 C156,343.24485 156.31141,342.558678 156.814389,342.036631 C157.342853,341.488134 158.080697,341.118586 158.909528,341.023985 L158.909528,341.023985 Z" id="Combined-Shape" stroke="#DDE9FF" stroke-width="2" fill="#FFFFFF"></path>
            <path d="M152.428571,426.571429 L152.428571,448 L131,448 L131,426.571429 L152.428571,426.571429 Z M178.142857,439.428571 L178.142857,448 L161,448 L161,443.714286 L173.857143,443.714286 L173.857143,439.428571 L178.142857,439.428571 Z M186.714286,443.714286 L186.714286,448 L182.428571,448 L182.428571,443.714286 L186.714286,443.714286 Z M148.142857,430.857143 L135.285714,430.857143 L135.285714,443.714286 L148.142857,443.714286 L148.142857,430.857143 Z M165.285714,388 L165.285714,392.285714 L161,392.285714 L161,396.571429 L165.285714,396.571429 L165.285714,409.428571 L161,409.428571 L161,413.714286 L165.285714,413.714286 L165.285714,418 L161,418 L161,426.571429 L165.285714,426.571429 L165.285714,430.857143 L161,430.857143 L161,435.142857 L165.285714,435.142857 L165.285714,439.428571 L161,439.428571 L161,443.714286 L156.714286,443.714286 L156.714286,430.857143 L161,430.857143 L161,426.571429 L156.714286,426.571429 L156.714286,422.285714 L143.857143,422.285714 L143.857,418 L139.571429,418 L139.571429,422.285714 L135.285714,422.285714 L135.285714,418 L131,418 L131,413.714286 L135.285714,413.714286 L135.285714,418 L139.571429,418 L139.571429,413.714286 L148.142857,413.714286 L148.142,417.999 L160.999,417.999 L161,413.714286 L156.714286,413.714286 L156.714286,405.142857 L161,405.142857 L161,400.857143 L156.714286,400.857143 L156.714286,388 L165.285714,388 Z M191,439.428571 L191,443.714286 L186.714286,443.714286 L186.714286,439.428571 L191,439.428571 Z M173.857143,435.142857 L173.857143,439.428571 L169.571429,439.428571 L169.571429,435.142857 L173.857143,435.142857 Z M191,413.714286 L191,422.285714 L186.714286,422.285714 L186.714286,430.857143 L182.428571,430.857143 L182.428571,435.142857 L186.714286,435.142857 L186.714286,439.428571 L178.142857,439.428571 L178.142857,430.857143 L169.571429,430.857143 L169.571429,435.142857 L165.285714,435.142857 L165.285714,430.857143 L169.571429,430.857143 L169.571429,426.571429 L182.428571,426.571429 L182.428571,418 L186.714,417.999 L186.714286,413.714286 L191,413.714286 Z M191,430.857143 L191,435.142857 L186.714286,435.142857 L186.714286,430.857143 L191,430.857143 Z M169.571429,422.285714 L169.571429,426.571429 L165.285714,426.571429 L165.285714,422.285714 L169.571429,422.285714 Z M178.142857,413.714286 L178.142857,422.285714 L173.857143,422.285714 L173.857,418 L169.571429,418 L169.571429,413.714286 L178.142857,413.714286 Z M152.428571,388 L152.428571,409.428571 L131,409.428571 L131,388 L152.428571,388 Z M191,388 L191,409.428571 L169.571429,409.428571 L169.571429,388 L191,388 Z M148.142857,392.285714 L135.285714,392.285714 L135.285714,405.142857 L148.142857,405.142857 L148.142857,392.285714 Z M186.714286,392.285714 L173.857143,392.285714 L173.857143,405.142857 L186.714286,405.142857 L186.714286,392.285714 Z M143.857143,396.571429 L143.857143,400.857143 L139.571429,400.857143 L139.571429,396.571429 L143.857143,396.571429 Z" id="Combined-Shape" fill="#000000" fill-rule="nonzero"></path>
            <path d="M129,516 L193,516 C198.522847,516 203,520.477153 203,526 C203,531.522847 198.522847,536 193,536 L129,536 C123.477153,536 119,531.522847 119,526 C119,520.477153 123.477153,516 129,516 Z" id="Rectangle" fill="#0057FF"></path>
            <polyline id="Path-4" stroke="#FFFFFF" stroke-width="2" points="155 526 159 530 167 522"></polyline>
        </g>
    </g>
</svg>