<?xml version="1.0" encoding="UTF-8"?>
<svg width="24px" height="24px" viewBox="0 0 24 24" version="1.1" xmlns="http://www.w3.org/2000/svg" xmlns:xlink="http://www.w3.org/1999/xlink">
    <title>epios_icon_user</title>
    <g id="epios_icon_user" stroke="none" stroke-width="1" fill="none" fill-rule="evenodd">
        <g id="iconfinder_user_2561496" transform="translate(4.000000, 3.000000)" fill="#000000" fill-rule="nonzero">
            <path d="M12,11 C14.6887547,11 16.8818181,13.1223067 16.9953805,15.7831104 L17,16 L17,18 C17,18.5522847 16.5522847,19 16,19 C15.4871642,19 15.0644928,18.6139598 15.0067277,18.1166211 L15,18 L15,16 C15,14.4023191 13.75108,13.0963391 12.1762728,13.0050927 L12,13 L4,13 C2.40231912,13 1.09633912,14.24892 1.00509269,15.8237272 L1,16 L1,18 C1,18.5522847 0.55228475,19 0,19 C-0.512835839,19 -0.935507161,18.6139598 -0.993272269,18.1166211 L-1,18 L-1,16 C-1,13.3112453 1.12230671,11.1181819 3.78311038,11.0046195 L4,11 L12,11 Z" id="Path"></path>
            <path d="M8,-1 C5.23857625,-1 3,1.23857625 3,4 C3,6.76142375 5.23857625,9 8,9 C10.7614237,9 13,6.76142375 13,4 C13,1.23857625 10.7614237,-1 8,-1 Z M8,1 C9.65685425,1 11,2.34314575 11,4 C11,5.65685425 9.65685425,7 8,7 C6.34314575,7 5,5.65685425 5,4 C5,2.34314575 6.34314575,1 8,1 Z" id="Oval"></path>
        </g>
    </g>
</svg>