<?xml version="1.0" encoding="UTF-8"?>
<svg width="24px" height="24px" viewBox="0 0 24 24" version="1.1" xmlns="http://www.w3.org/2000/svg" xmlns:xlink="http://www.w3.org/1999/xlink">
    <title>epios_icon_virus</title>
    <g id="epios_icon_virus" stroke="none" stroke-width="1" fill="none" fill-rule="evenodd">
        <g id="iconfinder_Disease-10_5766024" transform="translate(2.000000, 1.000000)" fill="#000000" fill-rule="nonzero">
            <path d="M0.0454771439,14.3991861 C0.120968688,14.6323359 0.286007037,14.825875 0.504216732,14.9371464 C0.722426428,15.0484177 0.975895156,15.0682872 1.20875686,14.9923755 L2.52604984,14.564056 C3.02508155,15.6738661 3.7492894,16.6676939 4.65267692,17.4824187 L3.83455648,18.6092187 C3.64070977,18.8762481 3.60394296,19.2264847 3.73810575,19.5279977 C3.87226854,19.8295107 4.15697841,20.0364932 4.48498791,20.0709768 C4.81299741,20.1054604 5.13447409,19.9622062 5.3283208,19.6951768 L6.14385088,18.5719358 C7.19656377,19.1841643 8.36638635,19.5675128 9.57706489,19.6969932 L9.57706489,21.0763935 C9.57706489,21.5864873 9.99027701,22 10.5,22 C11.009723,22 11.4229351,21.5864873 11.4229351,21.0763935 L11.4229351,19.6969932 C12.6336127,19.5675166 13.8034353,19.1841723 14.8561491,18.5719481 L15.6716792,19.6951891 C15.9717387,20.1068014 16.548153,20.1976026 16.9600629,19.8981452 C17.3719728,19.5986879 17.463856,19.0220362 17.1654374,18.609231 L16.3473169,17.482431 C17.2507044,16.6677062 17.9749123,15.6738784 18.473944,14.5640683 L19.791237,14.9923878 C20.2760719,15.1501309 20.7968913,14.8846847 20.9545197,14.399497 C21.1121482,13.9143094 20.8468949,13.3931111 20.36206,13.235368 L19.0499478,12.8087418 C19.3036688,11.6162882 19.3036688,10.3837365 19.0499478,9.19128283 L20.36206,8.76465666 C20.846895,8.60691355 21.1121482,8.0857152 20.9545198,7.60052758 C20.7968913,7.11533995 20.2760719,6.84989372 19.791237,7.00763683 L18.473944,7.43595628 C17.9749123,6.32614624 17.2507044,5.33231842 16.3473169,4.51759359 L17.1654374,3.3907936 C17.4650984,2.97800189 17.3736311,2.4002681 16.9611395,2.10038905 C16.5486479,1.80051001 15.9713341,1.8920438 15.671673,2.3048355 L14.856143,3.42807652 C13.8034329,2.81584457 12.6336125,2.43249184 11.4229351,2.30300676 L11.4229351,0.923606544 C11.4229351,0.413512735 11.009723,0 10.5,0 C9.99027701,0 9.57706489,0.413512735 9.57706489,0.923606544 L9.57706489,2.30300676 C8.36638727,2.43248341 7.19656475,2.81582774 6.14385088,3.42805189 L5.3283208,2.30481087 C5.02826126,1.89319862 4.45184697,1.80239742 4.03993708,2.10185478 C3.62802719,2.40131214 3.53614403,2.97796376 3.83456263,3.39076897 L4.65268308,4.51756896 C3.74929555,5.33229379 3.0250877,6.32612161 2.52605599,7.43593165 L1.20876302,7.0076122 C0.723928104,6.84986909 0.203108656,7.11531532 0.0454802203,7.60050295 C-0.112148215,8.08569057 0.153105044,8.60688892 0.637939956,8.76463203 L1.95005219,9.1912582 C1.69633124,10.3837118 1.69633124,11.6162635 1.95005219,12.8087172 L0.637939956,13.2353433 C0.153409887,13.393272 -0.111723566,13.9141041 0.0454771439,14.3991861 Z M10.5,4.10030815 C13.2886636,4.10030815 15.8028051,5.78116469 16.870065,8.35939317 C17.9373248,10.9376217 17.34752,13.9053516 15.3756802,15.8787122 C13.4038404,17.8520728 10.4382937,18.4424365 7.86189286,17.3745129 C5.285492,16.3065894 3.6056255,13.7906923 3.6056255,11 C3.60981307,7.19126034 6.69402936,4.10466532 10.5,4.10030815 Z" id="Shape"></path>
            <path d="M7.25741936,11.7010218 C7.65606011,12.0996607 8.30238296,12.0996592 8.70102184,11.7010184 C9.09966072,11.3023777 9.09965919,10.6560548 8.70101844,10.257416 L7.74260732,9.29900484 C7.48473319,9.04112947 7.10887279,8.94041702 6.7566091,9.0348049 C6.40434541,9.12919277 6.12919568,9.40434121 6.03480614,9.75660445 C5.94041661,10.1088677 6.04112728,10.4847286 6.29900144,10.7426039 L7.25741936,11.7010218 Z" id="Path"></path>
            <path d="M13.0207746,12 C13.2915881,12.0003254 13.5513602,11.8926896 13.7425743,11.7009235 L14.7009971,10.7425405 C14.9588725,10.4846745 15.0595837,10.1088273 14.9651937,9.75657692 C14.8708037,9.40432649 14.5956526,9.12918807 14.2433871,9.03480363 C13.8911216,8.94041919 13.5152593,9.04112798 13.2573839,9.29899396 L12.298968,10.2573702 C12.0070574,10.5493293 11.9197433,10.9883631 12.0777324,11.3697899 C12.2357215,11.7512166 12.6079078,11.9999386 13.0207746,12 L13.0207746,12 Z" id="Path"></path>
            <path d="M8,14 C8,14.5522741 8.35610375,14.9999742 8.79536103,15 L12.204639,15 C12.6439047,15 13,14.5522847 13,14 C13,13.4477153 12.6439047,13 12.204639,13 L8.79536103,13 C8.35610375,13.0000258 8,13.4477259 8,14 Z" id="Path"></path>
        </g>
    </g>
</svg>